<?xml version="1.0" encoding="UTF-8" standalone="no"?>
<!DOCTYPE svg PUBLIC "-//W3C//DTD SVG 1.1//EN" "http://www.w3.org/Graphics/SVG/1.1/DTD/svg11.dtd">
<svg width="100%" height="100%" viewBox="0 0 2279 508" version="1.1" xmlns="http://www.w3.org/2000/svg" xmlns:xlink="http://www.w3.org/1999/xlink" xml:space="preserve" xmlns:serif="http://www.serif.com/" style="fill-rule:evenodd;clip-rule:evenodd;stroke-linejoin:round;stroke-miterlimit:2;">
    <g transform="matrix(1,0,0,1,-116.543,-64.2261)">
        <g transform="matrix(1,0,0,1,1000,1000)">
            <g transform="matrix(1,0,0,1,45.1388,-146.915)">
                <g id="Glyph" transform="matrix(1,0,0,1,-928.596,-793.188)">
                    <rect x="0" y="469.333" width="298.667" height="42.667" style="fill-rule:nonzero;"/>
                    <path d="M256,426.32C256,414.617 246.37,404.987 234.667,404.987L64,404.987C52.297,404.987 42.667,414.617 42.667,426.32L42.667,448L256,448L256,426.32Z" style="fill-rule:nonzero;"/>
                    <path d="M290.272,251.899C280.332,262.492 271.996,274.485 265.531,287.493L441.125,463.088C449.4,471.36 463.016,471.36 471.291,463.088L501.461,432.917C505.461,428.918 507.71,423.488 507.71,417.832C507.71,412.176 505.461,406.746 501.461,402.747L325.867,227.2C312.835,233.609 300.837,241.934 290.272,251.899Z" style="fill-rule:nonzero;"/>
                    <path d="M184.677,146.304C168.545,161.275 149.869,173.248 129.531,181.659L239.792,291.92C248.278,271.616 260.263,252.959 275.2,236.8C291.334,221.829 310.009,209.855 330.347,201.44L220.08,91.2C211.591,111.496 199.609,130.147 184.677,146.304Z" style="fill-rule:nonzero;"/>
                    <g transform="matrix(0.707,-0.707,0.707,0.707,22.4053,256.181)">
                        <path d="M363.109,15.715C363.109,3.939 353.549,-5.621 341.773,-5.621L299.113,-5.621C287.337,-5.621 277.776,3.939 277.776,15.715L277.776,186.375C277.776,198.151 287.337,207.712 299.113,207.712L341.773,207.712C353.549,207.712 363.109,198.151 363.109,186.375L363.109,15.715Z"/>
                    </g>
                    <g transform="matrix(0.707,-0.707,0.707,0.707,-158.613,181.205)">
                        <path d="M182.091,196.734C182.091,184.958 172.53,175.397 160.754,175.397L118.094,175.397C106.318,175.397 96.757,184.958 96.757,196.734L96.757,367.394C96.757,379.17 106.318,388.731 118.094,388.731L160.754,388.731C172.53,388.731 182.091,379.17 182.091,367.394L182.091,196.734Z"/>
                    </g>
                </g>
                <g transform="matrix(0.878371,0,0,0.878371,-911.352,-948.036)">
                    <text x="645.724px" y="596.784px" style="font-family:'AmericanTypewriter', 'American Typewriter', serif;font-size:395.312px;">Mini Stuﬀ</text>
                </g>
            </g>
        </g>
    </g>
</svg>
